<?xml version="1.0" encoding="UTF-8"?>
<!DOCTYPE svg PUBLIC "-//W3C//DTD SVG 1.1//EN" "http://www.w3.org/Graphics/SVG/1.1/DTD/svg11.dtd">
<!-- Creator: CorelDRAW 2020 (64-Bit) -->
<svg xmlns="http://www.w3.org/2000/svg" xml:space="preserve" width="4.16687in" height="5.82677in" version="1.1" style="shape-rendering:geometricPrecision; text-rendering:geometricPrecision; image-rendering:optimizeQuality; fill-rule:evenodd; clip-rule:evenodd"
viewBox="0 0 4128.2 5772.69"
 xmlns:xlink="http://www.w3.org/1999/xlink"
 xmlns:xodm="http://www.corel.com/coreldraw/odm/2003">
 <defs>
  <style type="text/css">
   <![CDATA[
    .fil0 {fill:black;fill-rule:nonzero}
    .fil1 {fill:white;fill-rule:nonzero}
   ]]>
  </style>
 </defs>
 <g id="Layer_x0020_1">
  <metadata id="CorelCorpID_0Corel-Layer"/>
  <g id="_2183068105760">
   <g>
    <polygon class="fil0" points="1578.25,2171.47 1578.25,1086.47 2686.8,2171.47 2805.32,2171.47 1693.44,1077.51 2689.71,0 2583.07,0 1578.25,1080.64 1578.25,0 1489.52,0 1489.52,2171.47 "/>
    <polygon class="fil0" points="3347.92,87.28 3347.92,2172.52 3436.03,2172.52 3436.03,87.28 4026.55,87.28 4026.55,0 2757.62,0 2757.62,87.28 "/>
    <path class="fil0" d="M1238.52 1669.07c8.12,354.31 -285.57,424.51 -527.82,424.51 -340.98,0 -548.02,-142.27 -548.02,-448.46l0 -134.98 -88.53 0 0 119.98c0,294.11 161.22,550.32 640.71,550.32 362.64,0 612.39,-151.22 612.39,-502.41l0 -1678.03 -88.73 0 0 1669.07z"/>
    <path class="fil0" d="M1070.22 4405.65l87.28 0 0 -419.51 218.5 0 0 -78.73 -218.5 0 0 -1658.03 -119.35 0 -1038.14 1573.46 0 163.3 1070.22 0 0 419.51zm-1025.85 -498.24l1025.85 -1553.05 0 1553.05 -1025.85 0z"/>
    <path class="fil0" d="M2118.78 4443.56c361.39,0 646.97,-285.57 655.71,-646.97 -5.62,-291.2 -192.46,-530.53 -451.58,-611.97 183.51,-78.73 314.53,-265.16 314.53,-466.37 0,-282.45 -232.87,-506.99 -518.65,-506.99 -285.37,0 -518.45,236.21 -518.45,504.07l0 2.71c0,201.21 131.23,387.64 314.53,466.37 -262.24,84.57 -445.75,323.48 -451.58,611.97 8.54,361.6 294.11,647.18 655.5,647.18zm-431.17 -1722.18l0 -2.92c0,-241.62 189.34,-430.96 431.17,-430.96 242.04,0 431.17,189.13 431.17,430.96 0,239.12 -189.34,428.67 -431.17,428.67 -241.83,-0.21 -431.17,-189.76 -431.17,-425.76zm-136.85 1075.22c0,-317.65 250.58,-568.23 568.02,-568.23 317.65,0 568.23,250.79 568.23,568.23 0,317.44 -250.37,568.44 -568.23,568.44 -317.44,0 -568.02,-250.79 -568.02,-565.52l0 -2.92z"/>
    <polygon class="fil1" points="2583.07,0 1578.25,0 1578.25,1080.64 "/>
    <path class="fil1" d="M2549.95 2718.25c0,-241.62 -189.34,-430.96 -431.17,-430.96 -241.83,0 -431.17,189.13 -431.17,430.96l0 2.92c0,236.21 189.34,425.55 431.17,425.55 241.83,0.21 431.17,-189.34 431.17,-428.47z"/>
    <path class="fil1" d="M4124.24 0l-97.69 0 0 87.28 -590.52 0 0 2085.24 -88.11 0 0 -2085.24 -590.51 0 0 -87.28 -67.91 0 -996.07 1077.51 1111.88 1093.97 -118.52 -0 -1108.75 -1085.22 0 1085.22 -88.74 0 0 -2171.47 -148.72 0 -79.36 0 -1261.23 0 0 3822.84 1038.14 -1573.67 119.35 0 0 1658.03 218.5 0 0 78.73 -218.5 0 0 419.51 -87.28 0 0 -419.51 -1070.22 0 0 1783.84 0 2.92 4128.2 0 0 -5772.69 -3.96 0zm-2796.99 1678.02c0,351.19 -249.75,502.41 -612.39,502.41 -479.5,0 -640.71,-256.2 -640.71,-550.32l0 -119.98 88.74 0 0 134.98c0,306.19 207.04,448.46 548.02,448.46 242.25,0 535.94,-70.4 527.82,-424.51l0 -1669.07 88.74 0 0 1678.02 -0.21 0zm587.39 1506.6c-183.3,-78.73 -314.53,-265.16 -314.53,-466.37l0 -2.71c0,-267.87 233.29,-504.07 518.45,-504.07 285.78,0 518.65,224.34 518.65,506.99 0,201.21 -131.02,387.64 -314.53,466.37 259.33,81.65 445.96,320.77 451.58,611.97 -8.75,361.39 -294.32,646.97 -655.71,646.97 -361.18,0 -646.97,-285.57 -655.5,-646.97 5.83,-288.7 189.34,-527.61 451.58,-612.18z"/>
    <polygon class="fil1" points="1070.22,2354.36 44.37,3907.41 1070.22,3907.41 "/>
    <path class="fil1" d="M2118.78 4365.03c317.65,0 568.23,-250.79 568.23,-568.44 0,-317.65 -250.37,-568.23 -568.23,-568.23 -317.44,0 -568.02,250.79 -568.02,568.23l0 2.92c0,314.53 250.37,565.52 568.02,565.52z"/>
   </g>
  </g>
 </g>
</svg>
